[Header]
FileType HTR
DataType HTRS
FileVersion 1
NumSegments 48
NumFrames 3
DataFrameRate 30
EulerRotationOrder ZYX
CalibrationUnits mm
RotationUnits Degrees
GlobalAxisofGravity Y
BoneLengthAxis Y
ScaleFactor 1.0
[SegmentNames&Hierarchy]
Wolf	GLOBAL
Becken	Wolf
Bauch	Becken
Bauch_001	Bauch
Brust	Bauch_001
Hals	Brust
Kopf_002	Hals
Kopf	Kopf_002
Unterkiefer	Kopf
Hals_fett	Unterkiefer
Maulunten	Unterkiefer
Mauloben	Kopf
MundW_L	Kopf
MundW_R	Kopf
Augen_con	Kopf
IK_Aug_R	Augen_con
IK_Aug_L	Augen_con
Aug_R	Kopf
aug_L	Kopf
Ohr_L	Kopf
Ohr_R	Kopf
Braun_O_L	Kopf
Braun_O_R	Kopf
aug_lied_O_L	Kopf
aug_lied_O_R	Kopf
aug_lied_U_L	Kopf
aug_lied_U_R	Kopf
Bauch_003	Brust
Schalterplatte_L	Bauch_003
Oberarm_L	Schalterplatte_L
Unterarm_L	Oberarm_L
Vorderpfote_L	Unterarm_L
Schalterplatte_R	Bauch_003
Oberarm_R	Schalterplatte_R
Unterarm_R	Oberarm_R
Vorderpfote_R	Unterarm_R
Schwanz	Becken
Schwanz_001	Schwanz
Schwanz_002	Schwanz_001
Schwanz_003	Schwanz_002
Oberschenkel_L	Becken
Unterschenkel_L	Oberschenkel_L
Pfote1_L	Unterschenkel_L
Pfote2_L	Pfote1_L
Oberschenkel_R	Becken
Unterschenkel_R	Oberschenkel_R
Pfote1_R	Unterschenkel_R
Pfote2_R	Pfote1_R
[BasePosition]
Wolf	0	0	0	0	0	0	1
Becken	0	0	0	0	0	0	1
Bauch	0	0	0	0	0	0	1
Bauch_001	0	0	0	0	0	0	1
Brust	0	0	0	0	0	0	1
Hals	0	0	0	0	0	0	1
Kopf_002	0	0	0	0	0	0	1
Kopf	0	0	0	0	0	0	1
Unterkiefer	0	0	0	0	0	0	1
Hals_fett	0	0	0	0	0	0	1
Maulunten	0	0	0	0	0	0	1
Mauloben	0	0	0	0	0	0	1
MundW_L	0	0	0	0	0	0	1
MundW_R	0	0	0	0	0	0	1
Augen_con	0	0	0	0	0	0	1
IK_Aug_R	0	0	0	0	0	0	1
IK_Aug_L	0	0	0	0	0	0	1
Aug_R	0	0	0	0	0	0	1
aug_L	0	0	0	0	0	0	1
Ohr_L	0	0	0	0	0	0	1
Ohr_R	0	0	0	0	0	0	1
Braun_O_L	0	0	0	0	0	0	1
Braun_O_R	0	0	0	0	0	0	1
aug_lied_O_L	0	0	0	0	0	0	1
aug_lied_O_R	0	0	0	0	0	0	1
aug_lied_U_L	0	0	0	0	0	0	1
aug_lied_U_R	0	0	0	0	0	0	1
Bauch_003	0	0	0	0	0	0	1
Schalterplatte_L	0	0	0	0	0	0	1
Oberarm_L	0	0	0	0	0	0	1
Unterarm_L	0	0	0	0	0	0	1
Vorderpfote_L	0	0	0	0	0	0	1
Schalterplatte_R	0	0	0	0	0	0	1
Oberarm_R	0	0	0	0	0	0	1
Unterarm_R	0	0	0	0	0	0	1
Vorderpfote_R	0	0	0	0	0	0	1
Schwanz	0	0	0	0	0	0	1
Schwanz_001	0	0	0	0	0	0	1
Schwanz_002	0	0	0	0	0	0	1
Schwanz_003	0	0	0	0	0	0	1
Oberschenkel_L	0	0	0	0	0	0	1
Unterschenkel_L	0	0	0	0	0	0	1
Pfote1_L	0	0	0	0	0	0	1
Pfote2_L	0	0	0	0	0	0	1
Oberschenkel_R	0	0	0	0	0	0	1
Unterschenkel_R	0	0	0	0	0	0	1
Pfote1_R	0	0	0	0	0	0	1
Pfote2_R	0	0	0	0	0	0	1
[Wolf]
7	0	0	0	-90	-0	0	1.0
8	0	0	0	-90	-0	0	1.0
9	0	0	0	-90	-0	0	1.0
[Becken]
7	0	0.3545415103	-0.2951298356	-2.067962885	164.4212189	89.26520538	1.0
8	0	0.3445554972	-0.2767899036	-2.067962885	164.4212189	89.26520538	1.0
9	0	0.334569484	-0.2595238388	-2.067962885	164.4212189	89.26520538	1.0
[Bauch]
7	0.9984878302	-0.00741992658	-0.150611341	-6.458931239e-07	12.60522842	-8.201818247e-08	1.0
8	0.9984878302	-0.00741992658	-0.150611341	-6.458931239e-07	12.60522842	-8.201818247e-08	1.0
9	0.9984878302	-0.00741992658	-0.150611341	-6.458931239e-07	12.60522842	-8.201818247e-08	1.0
[Bauch_001]
7	1.071342349	0.006600080058	-0.1893585622	-1.568805601e-07	2.360082865	-2.503413654e-08	1.0
8	1.071342349	0.006600080058	-0.1893585622	-1.568805601e-07	2.360082865	-2.503413654e-08	1.0
9	1.071342349	0.006600080058	-0.1893585622	-1.568805601e-07	2.360082865	-2.503413654e-08	1.0
[Brust]
7	1.41907382	-0.01381989196	0.3623858392	3.618613846e-06	10.7627573	-4.096809789e-05	1.0
8	1.41907382	-0.01381989196	0.3623858392	3.618613846e-06	10.7627573	-4.096809789e-05	1.0
9	1.41907382	-0.01381989196	0.3623858392	3.618613846e-06	10.7627573	-4.096809789e-05	1.0
[Hals]
7	1.1844244	-0.01484991144	1.02827692	-4.51789947e-06	46.87745285	-2.16624926e-06	1.0
8	1.1844244	-0.01484991144	1.02827692	-4.51789947e-06	46.87745285	-2.16624926e-06	1.0
9	1.1844244	-0.01484991144	1.02827692	-4.51789947e-06	46.87745285	-2.16624926e-06	1.0
[Kopf_002]
7	1.75259161	3.012944944e-05	0.2651725411	0.006653842982	-165.1497192	0.002556535648	1.0
8	1.75259161	3.012944944e-05	0.2651725411	0.006653842982	-165.1497192	0.002556535648	1.0
9	1.75259161	3.012944944e-05	0.2651725411	0.006653842982	-165.1497192	0.002556535648	1.0
[Kopf]
7	1.015781879	8.032657206e-08	9.111317922e-08	0.06872025877	123.2280426	-0.02605217695	1.0
8	1.015781879	8.032657206e-08	9.111317922e-08	0.06872025877	123.2280426	-0.02605217695	1.0
9	1.015781879	8.032657206e-08	9.111317922e-08	0.06872025877	123.2280426	-0.02605217695	1.0
[Unterkiefer]
7	0.6370437145	0.004552738741	0.4060620368	5.412721157	-68.3888092	-3.09354353	1.0
8	0.6370437145	0.004552738741	0.4060620368	5.412721157	-68.3888092	-3.09354353	1.0
9	0.6370437145	0.004552738741	0.4060620368	5.412721157	-68.3888092	-3.09354353	1.0
[Hals_fett]
7	0.2998299599	0.007747137919	0.1206380203	-5.071650982	-59.35961533	5.585566998	1.0
8	0.2998299599	0.007747137919	0.1206380203	-5.071650982	-59.35961533	5.585566998	1.0
9	0.2998299599	0.007747137919	0.1206380203	-5.071650982	-59.35961533	5.585566998	1.0
[Maulunten]
7	0.08317943662	-0.007747350261	-0.1206459776	-3.32220912	38.97271347	-0.871876061	1.0
8	0.08317943662	-0.007747350261	-0.1206459776	-3.32220912	38.97271347	-0.871876061	1.0
9	0.08317943662	-0.007747350261	-0.1206459776	-3.32220912	38.97271347	-0.871876061	1.0
[Mauloben]
7	0.910148263	0.0004056794569	0.4003701806	-0.1032674983	-28.77768707	0.03543139994	1.0
8	0.910148263	0.0004056794569	0.4003701806	-0.1032674983	-28.77768707	0.03543139994	1.0
9	0.910148263	0.0004056794569	0.4003701806	-0.1032674983	-28.77768707	0.03543139994	1.0
[MundW_L]
7	0.673060894	-0.3618556261	0.3751286268	-179.8370972	-17.94884872	24.71397209	1.0
8	0.673060894	-0.3618556261	0.3751286268	-179.8370972	-17.94884872	24.71397209	1.0
9	0.673060894	-0.3618556261	0.3751286268	-179.8370972	-17.94884872	24.71397209	1.0
[MundW_R]
7	0.6732318401	0.3627035022	0.37398085	179.6653442	-18.02427101	-24.69083977	1.0
8	0.6732318401	0.3627035022	0.37398085	179.6653442	-18.02427101	-24.69083977	1.0
9	0.6732318401	0.3627035022	0.37398085	179.6653442	-18.02427101	-24.69083977	1.0
[Augen_con]
7	1.807372689	-0.0001604028512	0.1835819334	0.09822253883	157.1545258	0.02385936864	1.0
8	1.807372689	-0.0001604028512	0.1835819334	0.09822253883	157.1545258	0.02385936864	1.0
9	1.807372689	-0.0001604028512	0.1835819334	0.09822253883	157.1545258	0.02385936864	1.0
[IK_Aug_R]
7	0.3461304307	0.2943200469	-8.032657206e-08	-0.4194762409	-4.963055134	165.6946411	1.0
8	0.3461304307	0.2943200469	-8.032657206e-08	-0.4194762409	-4.963055134	165.6946411	1.0
9	0.3461304307	0.2943200469	-8.032657206e-08	-0.4194762409	-4.963055134	165.6946411	1.0
[IK_Aug_L]
7	0.3461307883	-0.2943199575	-1.629814861e-08	0.4194769561	-4.963055134	-165.6946411	1.0
8	0.3461307883	-0.2943199575	-1.629814861e-08	0.4194769561	-4.963055134	-165.6946411	1.0
9	0.3461307883	-0.2943199575	-1.629814861e-08	0.4194769561	-4.963055134	-165.6946411	1.0
[Aug_R]
7	1.0351547	0.2207805812	-0.09605748951	176.004776	-17.29163933	12.85548019	1.0
8	1.0351547	0.2207805812	-0.09605748951	176.004776	-17.29163933	12.85548019	1.0
9	1.0351547	0.2207805812	-0.09605748951	176.004776	-17.29163933	12.85548019	1.0
[aug_L]
7	1.035044074	-0.2215988934	-0.09535883367	-176.1891022	-17.33178139	-12.83103275	1.0
8	1.035044074	-0.2215988934	-0.09535883367	-176.1891022	-17.33178139	-12.83103275	1.0
9	1.035044074	-0.2215988934	-0.09535883367	-176.1891022	-17.33178139	-12.83103275	1.0
[Ohr_L]
7	0.6407760978	-0.3659991622	-0.6893320084	-24.34924507	53.07766342	-15.02013397	1.0
8	0.6407760978	-0.3659991622	-0.6893320084	-24.34924507	53.07766342	-15.02013397	1.0
9	0.6407760978	-0.3659991622	-0.6893320084	-24.34924507	53.07766342	-15.02013397	1.0
[Ohr_R]
7	0.6409583092	0.3634999394	-0.6904845238	24.05786133	53.12416077	14.75857162	1.0
8	0.6409583092	0.3634999394	-0.6904845238	24.05786133	53.12416077	14.75857162	1.0
9	0.6409583092	0.3634999394	-0.6904845238	24.05786133	53.12416077	14.75857162	1.0
[Braun_O_L]
7	0.9801794291	-0.3706048727	-0.3292538524	-143.3172302	-34.69635391	52.39493942	1.0
8	0.9801794291	-0.3706048727	-0.3292538524	-143.3172302	-34.69635391	52.39493942	1.0
9	0.9801794291	-0.3706048727	-0.3292538524	-143.3172302	-34.69635391	52.39493942	1.0
[Braun_O_R]
7	0.9803634882	0.3690741956	-0.3304223716	143.1826782	-34.83971786	-52.3467598	1.0
8	0.9803634882	0.3690741956	-0.3304223716	143.1826782	-34.83971786	-52.3467598	1.0
9	0.9803634882	0.3690741956	-0.3304223716	143.1826782	-34.83971786	-52.3467598	1.0
[aug_lied_O_L]
7	1.038881421	-0.3271433711	-0.1608108282	-175.8613434	-20.15596199	60.31666946	1.0
8	1.038881421	-0.3271433711	-0.1608108282	-175.8613434	-20.15596199	60.31666946	1.0
9	1.038881421	-0.3271433711	-0.1608108282	-175.8613434	-20.15596199	60.31666946	1.0
[aug_lied_O_R]
7	1.039044261	0.3261157274	-0.1618429124	175.7657928	-20.31323814	-60.31218338	1.0
8	1.039044261	0.3261157274	-0.1618429124	175.7657928	-20.31323814	-60.31218338	1.0
9	1.039044261	0.3261157274	-0.1618429124	175.7657928	-20.31323814	-60.31218338	1.0
[aug_lied_U_L]
7	1.021915555	-0.3312865496	-0.1338484734	-159.8099365	-28.7482872	60.17461395	1.0
8	1.021915555	-0.3312865496	-0.1338484734	-159.8099365	-28.7482872	60.17461395	1.0
9	1.021915555	-0.3312865496	-0.1338484734	-159.8099365	-28.7482872	60.17461395	1.0
[aug_lied_U_R]
7	1.02207756	0.3303526342	-0.1348843277	159.7071381	-28.90532684	-60.15359116	1.0
8	1.02207756	0.3303526342	-0.1348843277	159.7071381	-28.90532684	-60.15359116	1.0
9	1.02207756	0.3303526342	-0.1348843277	159.7071381	-28.90532684	-60.15359116	1.0
[Bauch_003]
7	1.444672227	0.03385011479	-1.56629622	-3.870021374e-06	-137.6799469	1.039222207e-05	1.0
8	1.444672227	0.03385011479	-1.56629622	-3.870021374e-06	-137.6799469	1.039222207e-05	1.0
9	1.444672227	0.03385011479	-1.56629622	-3.870021374e-06	-137.6799469	1.039222207e-05	1.0
[Schalterplatte_L]
7	0.9443669319	-0.3814979196	-0.07298166305	-55.99488068	76.76383209	-85.27980042	1.0
8	0.9340701103	-0.3819026053	-0.06123353541	-49.16124344	76.60533142	-78.42144012	1.0
9	0.9243330359	-0.382307291	-0.04917952418	-42.44265366	76.27790833	-71.66619873	1.0
[Oberarm_L]
7	1.418636918	9.313225746e-08	1.303851604e-07	-73.75660706	-64.94160461	89.07912445	1.0
8	1.418636918	9.313225746e-08	1.303851604e-07	-74.86397552	-65.05226135	90.20793152	1.0
9	1.418636918	9.313225746e-08	1.303851604e-07	-75.81319427	-65.13687897	91.13371277	1.0
[Unterarm_L]
7	2.028227806	1.885928214e-07	1.862644972e-08	10.4462347	69.46286011	10.91719055	1.0
8	2.028227806	1.885928214e-07	1.862644972e-08	9.458758354	67.96655273	9.862618446	1.0
9	2.028227806	1.885928214e-07	1.862644972e-08	8.468511581	66.29164886	8.813743591	1.0
[Vorderpfote_L]
7	1.705947399	2.607703209e-07	2.305023372e-07	1.883842468	81.55706024	3.126204014	1.0
8	1.705947399	2.607703209e-07	2.305023372e-07	3.568167925	85.10383606	4.72700119	1.0
9	1.705947399	2.607703209e-07	2.305023372e-07	-7.204322338	88.31591797	-6.121555328	1.0
[Schalterplatte_R]
7	1.011282444	0.3958532512	0.1145175919	28.27776146	78.13031769	61.44690323	1.0
8	0.9802312255	0.3930484653	0.09334185719	46.51609802	79.72647095	80.44373322	1.0
9	0.9514380097	0.3902436495	0.0721661374	69.93524933	80.05040741	104.4786606	1.0
[Oberarm_R]
7	1.418636441	2.235174179e-07	1.490116119e-07	114.3418503	-55.40392303	-138.0982361	1.0
8	1.418636441	2.235174179e-07	1.490116119e-07	118.4375381	-53.18369675	-143.7200317	1.0
9	1.418636441	2.235174179e-07	1.490116119e-07	121.563118	-50.93192673	-148.2328796	1.0
[Unterarm_R]
7	2.028232098	1.350417733e-07	-7.450580597e-08	-15.38231087	70.43202209	-16.66596222	1.0
8	2.028232098	1.350417733e-07	-7.450580597e-08	-18.62629318	72.15151978	-20.25720596	1.0
9	2.028232098	1.350417733e-07	-7.450580597e-08	-21.46108627	73.3217926	-23.42814064	1.0
[Vorderpfote_R]
7	1.705937624	9.313230187e-09	7.101335342e-08	-3.30934763	54.8031044	0.8830462098	1.0
8	1.705937624	9.313230187e-09	7.101335342e-08	-3.969311237	39.63393021	2.006714106	1.0
9	1.705937624	9.313230187e-09	7.101335342e-08	-4.80493021	24.2614975	3.190838099	1.0
[Schwanz]
7	-0.1327172518	-1.338776023e-08	0.08362905681	0.1227790639	-123.7270813	-0.3642500639	1.0
8	-0.1224462837	-1.338776023e-08	0.07787306607	0.09657873213	-123.0753555	-0.2794042528	1.0
9	-0.1121753305	-1.338776023e-08	0.07211707532	0.07007221133	-122.4618835	-0.1978538781	1.0
[Schwanz_001]
7	0.9104326963	6.926712359e-08	1.564329999e-09	-0.592140615	-10.4252882	0.5380936861	1.0
8	0.9104326963	6.926712359e-08	1.564329999e-09	-0.6105297208	-9.672327042	0.5602295995	1.0
9	0.9104326963	6.926712359e-08	1.564329999e-09	-0.6275679469	-8.963546753	0.5808281898	1.0
[Schwanz_002]
7	0.7855662704	6.053597446e-08	1.369335223e-07	-0.1864159852	-13.24992847	0.1429555118	1.0
8	0.7855662704	6.053597446e-08	1.369335223e-07	-0.2385694385	-13.67333031	0.1833273619	1.0
9	0.7855662704	6.053597446e-08	1.369335223e-07	-0.2879915237	-14.07187462	0.2217146605	1.0
[Schwanz_003]
7	0.8350353241	6.286426668e-08	8.163624443e-08	-0.1325223893	-9.243715286	0.225137502	1.0
8	0.8350353241	6.286426668e-08	8.163624443e-08	0.02386251837	-4.081213474	0.06904875487	1.0
9	0.8350353241	6.286426668e-08	8.163624443e-08	0.1589164883	0.7654926777	-0.06570576131	1.0
[Oberschenkel_L]
7	0.5749288201	-0.5837000012	0.009352426976	17.53935814	-66.505867	-12.36070156	1.0
8	0.6054260135	-0.5837000012	-0.02155505493	16.57279968	-64.49373627	-11.29694843	1.0
9	0.6341382861	-0.5837000012	-0.05065249652	15.45638275	-61.62808228	-10.04111862	1.0
[Unterschenkel_L]
7	1.686439037	1.263867375e-07	5.731212172e-10	-119.6034164	-75.2649231	128.0141602	1.0
8	1.686439037	1.259628704e-07	6.686414755e-10	-126.487854	-73.72173309	135.2116852	1.0
9	1.686439037	1.255390032e-07	7.641616229e-10	-133.4155121	-71.42778778	142.5570526	1.0
[Pfote1_L]
7	1.190900326	1.338238889e-07	-1.567129289e-07	1.859162092	38.93592072	-6.60236454	1.0
8	1.190900326	1.343970126e-07	-1.552801336e-07	1.72379899	40.7388916	-6.812879562	1.0
9	1.190900326	1.349701364e-07	-1.5384731e-07	1.573234797	42.5801506	-7.039190769	1.0
[Pfote2_L]
7	0.9876256585	1.616919292e-07	-1.020156404e-07	27.21177483	105.6444778	21.07597733	1.0
8	0.9876256585	1.599248094e-07	-1.003918015e-07	26.6310482	106.6521988	20.29405403	1.0
9	0.9876256585	1.581576896e-07	-9.876795559e-08	26.60032654	107.6180115	20.00960159	1.0
[Oberschenkel_R]
7	0.6679977179	0.5837000608	0.09188598394	-10.89438534	-36.34259033	4.161284447	1.0
8	0.6460189819	0.5837000608	0.09572872519	-11.14293289	-39.10085297	4.564553261	1.0
9	0.623667717	0.5837000608	0.09957146645	-11.44502258	-42.03021622	5.027527332	1.0
[Unterschenkel_R]
7	1.686449051	1.11758709e-07	3.725289943e-08	-55.90689468	-109.3374023	40.72108078	1.0
8	1.686449051	1.11758709e-07	3.725289943e-08	-58.81221771	-108.4628906	43.70678329	1.0
9	1.686449051	1.11758709e-07	3.725289943e-08	-62.40480042	-107.5471268	47.40434647	1.0
[Pfote1_R]
7	1.190900326	2.176966518e-07	1.11758709e-07	-5.044984818	61.32572937	2.261757612	1.0
8	1.190900326	2.176966518e-07	1.11758709e-07	-5.182674885	61.95778656	2.105362177	1.0
9	1.190900326	2.176966518e-07	1.11758709e-07	-5.319189548	62.55887985	1.951097488	1.0
[Pfote2_R]
7	0.9876256585	1.024454832e-07	-4.656610209e-09	-67.88273621	98.25361633	-55.78917694	1.0
8	0.9876256585	1.024454832e-07	-4.656610209e-09	-61.3732605	98.25321198	-49.19760895	1.0
9	0.9876256585	1.024454832e-07	-4.656610209e-09	-54.57924652	98.35509491	-42.35253143	1.0
[EndOfFile]
